<svg xmlns="http://www.w3.org/2000/svg" width="120" height="80" viewBox="0 0 120 80"><title>nav</title><g id="Layer_1" data-name="Layer 1"><line x1="81.64" y1="34.1" x2="78" y2="45.99" style="fill:none;stroke:#aab7b8;stroke-linejoin:round;stroke-width:2px"/><polyline points="76.73 37.18 72.53 39.51 72.53 40.03 76.73 42.25" style="fill:none;stroke:#aab7b8;stroke-linejoin:round;stroke-width:2px"/><polyline points="83.39 37.18 87.6 39.51 87.6 40.03 83.39 42.25" style="fill:none;stroke:#aab7b8;stroke-linejoin:round;stroke-width:2px"/><path d="M45.82,65.51H60.18a1.24,1.24,0,0,1,.5.1l5.1,4.15a1.24,1.24,0,0,0,1,0l5.11-4.15a1.16,1.16,0,0,1,.49-.1h21.9V29.43H72.14a1.25,1.25,0,0,0-.5.11l-4.86,4a1.22,1.22,0,0,1-1,0l-4.87-4a1.25,1.25,0,0,0-.5-.11H45.82" style="fill:none;stroke:#aab7b8;stroke-linejoin:round;stroke-width:2px"/><line x1="66.28" y1="33.79" x2="66.28" y2="69.86" style="fill:none;stroke:#aab7b8;stroke-linejoin:round;stroke-width:2px"/><line x1="37.02" y1="31.84" x2="37.02" y2="42.64" style="fill:none;stroke:#aab7b8;stroke-linejoin:round;stroke-width:2px"/><path d="M14.78,70.79H2.43a1,1,0,0,1-1-1V27.32a1,1,0,0,1,1-1H13.79a1,1,0,0,1,1,1" style="fill:none;stroke:#aab7b8;stroke-linejoin:round;stroke-width:2px"/><line x1="7.79" y1="39.67" x2="7.79" y2="49.83" style="fill:none;stroke:#aab7b8;stroke-linejoin:round;stroke-width:2px"/><path d="M32.57,69.8a1,1,0,0,0,1,1h7.55a1,1,0,0,0,1-1V15.88a1,1,0,0,0-1-1H33.56a1,1,0,0,0-1,1" style="fill:none;stroke:#aab7b8;stroke-linejoin:round;stroke-width:2px"/><rect x="14.78" y="11.08" width="17.79" height="59.72" rx="0.99" ry="0.99" style="fill:none;stroke:#aab7b8;stroke-linejoin:round;stroke-width:2px"/><line x1="1.28" y1="33.31" x2="14.47" y2="33.31" style="fill:none;stroke:#aab7b8;stroke-linejoin:round;stroke-width:2px"/><line x1="1.28" y1="37.12" x2="14.68" y2="37.12" style="fill:none;stroke:#aab7b8;stroke-linejoin:round;stroke-width:2px"/><line x1="33.04" y1="18.5" x2="41.94" y2="18.5" style="fill:none;stroke:#aab7b8;stroke-linejoin:round;stroke-width:2px"/><line x1="33.04" y1="22.31" x2="41.94" y2="22.31" style="fill:none;stroke:#aab7b8;stroke-linejoin:round;stroke-width:2px"/><line x1="3.98" y1="64.44" x2="12.24" y2="64.44" style="fill:none;stroke:#aab7b8;stroke-linejoin:round;stroke-width:2px"/><line x1="4.1" y1="66.98" x2="12.24" y2="66.98" style="fill:none;stroke:#aab7b8;stroke-linejoin:round;stroke-width:2px"/><rect x="21.13" y="21.04" width="5.08" height="15.25" rx="2" ry="2" style="fill:none;stroke:#aab7b8;stroke-linejoin:round;stroke-width:2px"/><line x1="72.2" y1="49.82" x2="88.36" y2="49.82" style="fill:none;stroke:#aab7b8;stroke-linejoin:round;stroke-width:2px"/><line x1="72.2" y1="55.2" x2="88.36" y2="55.2" style="fill:none;stroke:#aab7b8;stroke-linejoin:round;stroke-width:2px"/><line x1="46.36" y1="39.05" x2="60.36" y2="39.05" style="fill:none;stroke:#aab7b8;stroke-linejoin:round;stroke-width:2px"/><line x1="46.36" y1="44.43" x2="60.36" y2="44.43" style="fill:none;stroke:#aab7b8;stroke-linejoin:round;stroke-width:2px"/><line x1="46.36" y1="49.82" x2="60.36" y2="49.82" style="fill:none;stroke:#aab7b8;stroke-linejoin:round;stroke-width:2px"/><line x1="46.36" y1="55.2" x2="60.36" y2="55.2" style="fill:none;stroke:#aab7b8;stroke-linejoin:round;stroke-width:2px"/></g></svg>