<svg id="Layer_1" data-name="Layer 1" xmlns="http://www.w3.org/2000/svg" xmlns:xlink="http://www.w3.org/1999/xlink" width="32" height="32" viewBox="0 0 32 32"><defs><clipPath id="clip-path"><polygon points="1330.16 244.09 1328.34 242.26 1321.02 249.57 1313.71 242.26 1311.88 244.09 1319.19 251.4 1311.88 258.71 1313.71 260.54 1321.02 253.23 1328.34 260.54 1330.16 258.71 1322.85 251.4 1330.16 244.09" style="fill:none;clip-rule:evenodd"/></clipPath></defs><title>press-releases</title><rect x="7.72" y="5.82" width="20.16" height="3.89" style="fill:none;stroke:#fff;stroke-linejoin:round"/><rect x="7.72" y="12.74" width="10.08" height="9.21" style="fill:none;stroke:#fff;stroke-linejoin:round"/><line x1="19.89" y1="17.51" x2="27.98" y2="17.51" style="fill:none;stroke:#fff;stroke-linejoin:round"/><line x1="19.85" y1="13.24" x2="27.98" y2="13.24" style="fill:none;stroke:#fff;stroke-linejoin:round"/><line x1="19.98" y1="21.77" x2="27.98" y2="21.77" style="fill:none;stroke:#fff;stroke-linejoin:round"/><line x1="7.53" y1="26.04" x2="27.98" y2="26.04" style="fill:none;stroke:#fff;stroke-linejoin:round"/><path d="M1.35,10.47V27.13A2.45,2.45,0,0,0,3.8,29.57H27.91a2.44,2.44,0,0,0,2.44-2.44V3.34H4.89V29.57" style="fill:none;stroke:#fff;stroke-linejoin:round"/></svg>