<svg id="Layer_1" data-name="Layer 1" xmlns="http://www.w3.org/2000/svg" xmlns:xlink="http://www.w3.org/1999/xlink" width="32" height="32" viewBox="0 0 32 32"><defs><clipPath id="clip-path"><polygon points="1477.5 244.09 1475.67 242.26 1468.35 249.57 1461.04 242.26 1459.21 244.09 1466.52 251.4 1459.21 258.71 1461.04 260.54 1468.35 253.23 1475.67 260.54 1477.5 258.71 1470.18 251.4 1477.5 244.09" style="fill:none;clip-rule:evenodd"/></clipPath></defs><title>blogs</title><line x1="8.97" y1="14.95" x2="15.15" y2="14.95" style="fill:none;stroke:#fff;stroke-linejoin:round"/><rect x="8.89" y="6.14" width="14.05" height="5.3" style="fill:none;stroke:#fff;stroke-linejoin:round"/><line x1="8.97" y1="18.34" x2="22.05" y2="18.34" style="fill:none;stroke:#fff;stroke-linejoin:round"/><rect x="6.54" y="3.35" width="18.75" height="18.73" style="fill:none;stroke:#fff;stroke-linejoin:round"/><g id="Choose_AWS_application" data-name="Choose AWS application"><path d="M1.07,25.13v2.49l.1.08a2.8,2.8,0,0,0,1.67.56H29.49a2.18,2.18,0,0,0,1.38-.49l.2-.15V25.13Z" style="fill:none;stroke:#fff;stroke-linejoin:round"/></g><path d="M27.34,7.88h.57a.6.6,0,0,1,.61.6v16a.6.6,0,0,1-.61.6H4.29a.6.6,0,0,1-.61-.6v-16a.6.6,0,0,1,.61-.6h.45" style="fill:none;stroke:#fff;stroke-linejoin:round"/></svg>