<svg xmlns="http://www.w3.org/2000/svg" viewBox="0 0 82 67"><defs><linearGradient id="a" x1="37.955%" x2="63.941%" y1="13.971%" y2="90.149%"><stop offset="0%" stop-color="#FAFAFF"/><stop offset="100%" stop-color="#EEEDFD"/></linearGradient></defs><g fill="none" fill-rule="evenodd"><path fill="#E8E7FF" d="M81.506 33.59L61.253 66.687H20.747L.494 33.59 20.747.494h40.506z"/><path fill="url(#a)" d="M0 33.5L32.147 12 81.5 33.5 52.5 54 23 57.5z"/><path fill="#FAFAFF" d="M20.613.5l12 12 28.5-12z"/><path fill="#E4E2FF" d="M61.253 66.687c-.33 0-3.07-4.552-8.22-13.654L23.113 57.5l-2.366 9.187h40.506z"/><path fill="#F0EFFF" d="M61.253.494L32.087 12.478 81.506 33.59z"/><path fill="#F0EFFF" d="M20.613.5l11.92 11.978L.494 33.59z"/><path fill="#E8E7FF" d="M81.506 33.59L52.587 53.478l8.666 13.209z"/></g></svg>
