<svg xmlns="http://www.w3.org/2000/svg" viewBox="0 0 320 130" xmlns:xlink="http://www.w3.org/1999/xlink"><defs><path id="a" d="M0 0h320v130H0z"/></defs><g fill="none" fill-rule="evenodd"><mask id="b" fill="#fff"><use xlink:href="#a"/></mask><path fill="#E3F3F6" d="M112.253 6L-16 56.149-.923 154H321V22.96L215.872 6z" mask="url(#b)"/><path fill="#6BD2F6" d="M111 4l39.589 34 51.599-2.125L217 4z" mask="url(#b)"/><path fill="#8FDEFA" d="M216.664 4L202 34.52 313 40l17-22.192z" mask="url(#b)"/><path fill="#44C2EE" d="M111.256 4L-26 42l5.518 13L127 17.5z" mask="url(#b)"/><path fill="#ECFCFF" d="M127 17.034L214.948 8 328 29.982 302.462 145.83l-165.499.17z" mask="url(#b)"/><path fill="#EA6DA5" d="M112 16l3 2-3-2z"/><path fill="#FFF" d="M65.103 114.395l48.397 5.72L221 109l59.5 8.116 39.5-.616V127H0v-5.723z"/><path fill="#FFF" d="M0 125h320v6H0z"/></g></svg>
