<svg xmlns="http://www.w3.org/2000/svg" viewBox="0 0 82 67"><defs><linearGradient id="a" x1="37.315%" x2="62.213%" y1="12.095%" y2="85.083%"><stop offset="0%" stop-color="#F4F4F4"/><stop offset="100%" stop-color="#E8E8E8"/></linearGradient></defs><g fill="none" fill-rule="evenodd"><path fill="#EBEBEB" d="M81.506 33.59L61.253 66.687H20.747L0 33.59 20.747.494h40.506z"/><path fill="url(#a)" d="M0 33.5L32.147 12 81.5 33.5 52.5 54 23 57.5z"/><path fill="#F1F1F1" d="M20.613.5l12 12 28.5-12z"/><path fill="#D6D6D6" d="M61.253 66.687c-.33 0-3.07-4.552-8.22-13.654L23.113 57.5l-2.366 9.187h40.506z"/><path fill="#E4E4E4" d="M61.253.494L32.5 12.5l49.006 21.09z"/><path fill="#EDEDED" d="M20.613.5l11.92 11.978L0 33.5z"/><path fill="#DDD" d="M81.506 33.59L52.587 53.478l8.666 13.209z"/></g></svg>
