<svg xmlns="http://www.w3.org/2000/svg" xmlns:xlink="http://www.w3.org/1999/xlink" width="285" height="150" viewBox="0 0 285 150">
    <defs>
        <path id="a" d="M0 0h285v150H0z"/>
    </defs>
    <g fill="none" fill-rule="evenodd">
        <mask id="b" fill="#fff">
            <use xlink:href="#a"/>
        </mask>
        <g mask="url(#b)">
            <path fill="#E6F7FA" d="M113.882 4.191l-76.96 56.632-29.396 91.633 29.396 91.634 34.933 28.719 42.027 27.914h95.127l76.961-56.633 30.1-34.305.784-153.788-18.801-19.359-89.044-32.447z"/>
            <path fill="#6BD2F6" d="M113.842 1l34.737 31.915 47.552-3.208L209.631 1z"/>
            <path fill="#8FDEFA" d="M209.632 1l-13.685 28.284 62.106 50.44 40-43.086z"/>
            <path fill="#44C2EE" d="M113.859 1L37 57.569l60.976 36.044 42.06.965 14.332-56.344z"/>
            <path fill="#00A1DE" d="M114.078 1L37 57.714 114.078 1z"/>
            <path fill="#A2DA4F" d="M53.892 67.37l-17.105-9.987-29.26 91.552 34.471.405z"/>
            <path fill="#EFF9FB" d="M128.579 14.298l74.21 2.128 88.948 27.127-17.55 84.124-23.65 69.922-90.58-17.876-20.852-84.613z"/>
            <path fill="#EAF6F8" d="M140.336 94.088L50.158 65.362l-27.895 74.426 71.977 55.575 67.34-15.394z"/>
            <path fill="#E0EFF1" d="M248.579 241.426h36.842l29.977-93.018-40.503-20.812-25.263 70.744z"/>
            <path fill="#83553E" d="M24.92 98.62l6.056 3.81 1.17-.66-.32-1.217-6.694-2.85z"/>
            <path fill="#6A3625" d="M25 97.702l-.08.388 6.504 4.077.395-1.152z"/>
            <path fill="#007575" d="M18.943 94.011l-.766 3.127 2.147 3.964 1.302 3.954 2.981-1.21 3.1-3.887 1.067-5.13-1.722-5.006-3.08 1.586-3.607.573z"/>
            <path fill="#00877C" d="M19.14 94.025l3.653 3.264 5.366 3.04 1.097-5.438-5.248-.069z"/>
            <path fill="#00877C" d="M16.973 97.44l.906 4.464 4.848-3.743 1.23-4.72-1.475-4.143-4.064 2.364-4.576.618z"/>
            <path fill="#007575" d="M13.842 92.45l5.236 3.87 3.65 2.433 1.23-5.06-4.605-.255z"/>
            <g>
                <path fill="#83553E" d="M33.033 77.439l6.644 4.605 1.373-.634-.29-1.35-7.428-3.607z"/>
                <path fill="#6A3625" d="M33.145 76.453l-.112.36 8.017 4.61-.296-1.354z"/>
                <path fill="#007575" d="M26.638 72.317l-1.049 3.341 2.168 4.474 1.22 4.396 3.417-1.09 3.712-3.992 1.508-5.496-1.629-5.572-3.55 1.49-4.08.35z"/>
                <path fill="#00A09A" d="M36.47 78.738l-3.647 3.927-2.767-4.632-3.321-4.064 4.161 1.311z"/>
                <path fill="#00877C" d="M26.735 72.105l3.76 3.467 5.625 3.366 1.494-5.268-5.665-.439z"/>
                <path fill="#00877C" d="M21.008 72.522l2.686 3.477 1.358 4.802 5.717-3.8 1.692-5.153-1.404-4.712-4.094.913-3.47-.347-2.387 2.107z"/>
                <path fill="#00A09A" d="M30.743 77.15l-5.702 3.651-1.354-4.614-2.679-3.34.098-2.605 5.67 4.227z"/>
                <path fill="#007575" d="M21.008 70.242l5.735 4.56 4.012 2.893 1.706-5.341-5.233-.627z"/>
                <path fill="#00A09A" d="M21.534 67.144L17 67.501l2.693 5.108 1.154 3.844 3.442-2.175 1.873-4.157-.416-4.227z"/>
                <path fill="#00877C" d="M21.202 71.254l3.087 3.336 1.873-4.192-4.313-.932L17 67.757z"/>
                <path fill="#007575" d="M21.534 67.18L17 67.547l4.85 1.744 4.312.95-.416-4.347z"/>
            </g>
            <path fill="#F4FDFF" d="M50.158 65.362l78.42-51.064 12.633 81.915z"/>
            <path fill="#E0F1F4" d="M7.526 149.097l14.737-9.267 71.443 54.638-36.18 67.702L37 253.128z"/>
            <path fill="#C9E0E4" d="M22.263 139.83l-14.737 9.042 17.895 112.234 16.842-4.255z"/>
        </g>
    </g>
</svg>
